# xmcd CD database file
#
# Track frame offsets:
#	150
#	15666
#	27778
#	42666
#	58643
#	72567
#	83716
#	98735
#	107884
#	120103
#	131036
#	144914
#	157247
#	172184
#	181676
#	198113
#	206391
#	223231
#	239919
#	254772
#	269130
#	282765
#	297277
#	308687
#	318237
#	329670
#	340871
#
# Disc length: 4686 seconds
#
# Revision: 1
# Processed by: cddbd v1.5.2PL0 Copyright (c) Steve Scherf et al.
# Submitted via: CDex 1.70beta2
#
DISCID=a5124c1b
DTITLE=Smith, R. Harlan - Cdn. - AB - Original Hits, Original Recordings - D1
DYEAR=2006
DGENRE=Country
TTITLE0=Ode To Suburbia
TTITLE1=After the Fire
TTITLE2=All Over Feeling
TTITLE3=All the Colours in My Rainbow
TTITLE4=Calgary, I'm Coming Home To You
TTITLE5=Cold Day in October
TTITLE6=Daddy and A Man
TTITLE7=The Days Are Never Long Enough
TTITLE8=Ding-A-Ling Debbie
TTITLE9=Fllin' in Love Kind of Feeling
TTITLE10=The Feeling of Coming Down
TTITLE11=The Greatest Yesterdays
TTITLE12=Half of What You've Been To Me
TTITLE13=Here Comes Yesterday
TTITLE14=Hurtin' Back To Me
TTITLE15=I Remember Love
TTITLE16=I've Been Through This Before
TTITLE17=I Wonder How It Is For You
TTITLE18=I'd Ever See You Again
TTITLE19=If You'd Just Be a Memory
TTITLE20=In the Candle Light
TTITLE21=Just a Matter of Time
TTITLE22=Just One Night of Love
TTITLE23=Life and Love and You
TTITLE24=Linda Jane
TTITLE25=Son of A Country Man
TTITLE26=The Sun Is Gonna Shine
EXTD=YEAR: 2006
EXTT0=
EXTT1=
EXTT2=
EXTT3=
EXTT4=
EXTT5=
EXTT6=
EXTT7=
EXTT8=
EXTT9=
EXTT10=
EXTT11=
EXTT12=
EXTT13=
EXTT14=
EXTT15=
EXTT16=
EXTT17=
EXTT18=
EXTT19=
EXTT20=
EXTT21=
EXTT22=
EXTT23=
EXTT24=
EXTT25=
EXTT26=
PLAYORDER=
